# xmcd
#
# Track frame offsets:
# 150
# 20142
# 37580
# 53652
# 67350
# 81407
# 93550
#
# Disc length: 2018 seconds
#
# Revision: 0
# Processed by: cddbd v1.4PL0 Copyright (c) Steve Scherf et al.
# Submitted via: MacMP3 Pro 5.0 (http://mp3.act2.co.jp/)
#
DISCID=5a07e007
DTITLE=O.V. Wright - Into Something
DYEAR=1900
DGENRE=
TTITLE0=Into Something(Can't Shake Loose)
TTITLE1=I Feel Love Growin'
TTITLE2=Precious Precious
TTITLE3=The Time We Have
TTITLE4=You Gotta Have Love
TTITLE5=Trying To Live My Life
TTITLE6=Medlley:  God Blessed Our Love | When A Man Loves A Woman | That's How Strong My Love Is
EXTD=
EXTT0=
EXTT1=
EXTT2=
EXTT3=
EXTT4=
EXTT5=
EXTT6=
PLAYORDER=
